<svg version="1.1" xmlns="http://www.w3.org/2000/svg" xmlns:xlink="http://www.w3.org/1999/xlink" width="48" height="48" viewBox="0,0,256,256"><g fill="#ffffff" fill-rule="nonzero" stroke="none" stroke-width="1" stroke-linecap="butt" stroke-linejoin="miter" stroke-miterlimit="10" stroke-dasharray="" stroke-dashoffset="0" font-family="none" font-weight="none" font-size="none" text-anchor="none" style="mix-blend-mode: normal"><g transform="translate(0,256) scale(0.26667,0.26667)">
<path d="M220,-80c-16,0 -30,-6 -42,-18c-12,-12 -18,-26 -18,-42v-520c0,-16 6,-30 18,-42c12,-12 26,-18 42,-18h110v-10c0,-42 14.5,-77.5 43.5,-106.5c29,-29 64.5,-43.5 106.5,-43.5c42,0 77.5,14.5 106.5,43.5c29,29 43.5,64.5 43.5,106.5v10h110c16,0 30,6 42,18c12,12 18,26 18,42v520c0,16 -6,30 -18,42c-12,12 -26,18 -42,18zM220,-140h520v-520h-110v90c0,8.5 -2.89167,15.625 -8.675,21.375c-5.784,5.75 -12.95067,8.625 -21.5,8.625c-8.55,0 -15.65833,-2.875 -21.325,-8.625c-5.66667,-5.75 -8.5,-12.875 -8.5,-21.375v-90h-180v90c0,8.5 -2.89167,15.625 -8.675,21.375c-5.784,5.75 -12.95067,8.625 -21.5,8.625c-8.55,0 -15.65833,-2.875 -21.325,-8.625c-5.66667,-5.75 -8.5,-12.875 -8.5,-21.375v-90h-110zM390,-720h180v-10c0,-25.33333 -8.66667,-46.66667 -26,-64c-17.33333,-17.33333 -38.66667,-26 -64,-26c-25.33333,0 -46.66667,8.66667 -64,26c-17.33333,17.33333 -26,38.66667 -26,64zM220,-140v-520z"></path></g></g></svg>